<?xml version="1.0" encoding="us-ascii" standalone="no"?><svg xmlns="http://www.w3.org/2000/svg" xmlns:xlink="http://www.w3.org/1999/xlink" contentStyleType="text/css" height="414px" preserveAspectRatio="none" style="width:829px;height:414px;background:#FFFFFF;" version="1.1" viewBox="0 0 829 414" width="829px" zoomAndPan="magnify"><defs/><g><!--class iPhone--><g id="elem_iPhone"><rect codeLine="1" fill="#F1F1F1" height="243.5625" id="iPhone" rx="2.5" ry="2.5" style="stroke:#181818;stroke-width:0.5;" width="297" x="298" y="7"/><ellipse cx="417.75" cy="23" fill="#ADD1B2" rx="11" ry="11" style="stroke:#181818;stroke-width:1.0;"/><path d="M420.0938,18.6719 C419.1563,18.2344 418.5625,18.0938 417.6875,18.0938 C415.0625,18.0938 413.0625,20.1719 413.0625,22.8906 L413.0625,24.0156 C413.0625,26.5938 415.1719,28.4844 418.0625,28.4844 C419.2813,28.4844 420.4375,28.1875 421.1875,27.6406 C421.7656,27.2344 422.0938,26.7813 422.0938,26.3906 C422.0938,25.9375 421.7031,25.5469 421.2344,25.5469 C421.0156,25.5469 420.8125,25.625 420.625,25.8125 C420.1719,26.2969 420.1719,26.2969 419.9844,26.3906 C419.5625,26.6563 418.875,26.7813 418.1094,26.7813 C416.0625,26.7813 414.7656,25.6875 414.7656,23.9844 L414.7656,22.8906 C414.7656,21.1094 416.0156,19.7969 417.75,19.7969 C418.3281,19.7969 418.9375,19.9531 419.4063,20.2031 C419.8906,20.4844 420.0625,20.7031 420.1563,21.1094 C420.2188,21.5156 420.25,21.6406 420.3906,21.7656 C420.5313,21.9063 420.7656,22.0156 420.9844,22.0156 C421.25,22.0156 421.5156,21.875 421.6875,21.6563 C421.7969,21.5 421.8281,21.3125 421.8281,20.8906 L421.8281,19.4688 C421.8281,19.0313 421.8125,18.9063 421.7188,18.75 C421.5625,18.4844 421.2813,18.3438 420.9844,18.3438 C420.6875,18.3438 420.4844,18.4375 420.2656,18.75 L420.0938,18.6719 Z " fill="#000000"/><text fill="#000000" font-family="sans-serif" font-size="14" lengthAdjust="spacing" textLength="49" x="438.25" y="27.8467">iPhone</text><line style="stroke:#181818;stroke-width:0.5;" x1="299" x2="594" y1="39" y2="39"/><ellipse cx="309" cy="52.6484" fill="none" rx="3" ry="3" style="stroke:#038048;stroke-width:1.0;"/><text fill="#000000" font-family="sans-serif" font-size="14" lengthAdjust="spacing" textLength="217" x="318" y="55.9951">ReprodutorMusical reprodutor</text><ellipse cx="309" cy="68.9453" fill="none" rx="3" ry="3" style="stroke:#038048;stroke-width:1.0;"/><text fill="#000000" font-family="sans-serif" font-size="14" lengthAdjust="spacing" textLength="207" x="318" y="72.292">AparelhoTelefonico telefone</text><ellipse cx="309" cy="85.2422" fill="none" rx="3" ry="3" style="stroke:#038048;stroke-width:1.0;"/><text fill="#000000" font-family="sans-serif" font-size="14" lengthAdjust="spacing" textLength="215" x="318" y="88.5889">NavegadorInternet navegador</text><line style="stroke:#181818;stroke-width:0.5;" x1="299" x2="594" y1="95.8906" y2="95.8906"/><ellipse cx="309" cy="109.5391" fill="#84BE84" rx="3" ry="3" style="stroke:#038048;stroke-width:1.0;"/><text fill="#000000" font-family="sans-serif" font-size="14" lengthAdjust="spacing" textLength="248" x="318" y="112.8857">fazerLigacao(numero: String): void</text><ellipse cx="309" cy="125.8359" fill="#84BE84" rx="3" ry="3" style="stroke:#038048;stroke-width:1.0;"/><text fill="#000000" font-family="sans-serif" font-size="14" lengthAdjust="spacing" textLength="172" x="318" y="129.1826">atenderChamada(): void</text><ellipse cx="309" cy="142.1328" fill="#84BE84" rx="3" ry="3" style="stroke:#038048;stroke-width:1.0;"/><text fill="#000000" font-family="sans-serif" font-size="14" lengthAdjust="spacing" textLength="185" x="318" y="145.4795">iniciarGravacaoVoz(): void</text><ellipse cx="309" cy="158.4297" fill="#84BE84" rx="3" ry="3" style="stroke:#038048;stroke-width:1.0;"/><text fill="#000000" font-family="sans-serif" font-size="14" lengthAdjust="spacing" textLength="134" x="318" y="161.7764">tocarMusica(): void</text><ellipse cx="309" cy="174.7266" fill="#84BE84" rx="3" ry="3" style="stroke:#038048;stroke-width:1.0;"/><text fill="#000000" font-family="sans-serif" font-size="14" lengthAdjust="spacing" textLength="143" x="318" y="178.0732">pausarMusica(): void</text><ellipse cx="309" cy="191.0234" fill="#84BE84" rx="3" ry="3" style="stroke:#038048;stroke-width:1.0;"/><text fill="#000000" font-family="sans-serif" font-size="14" lengthAdjust="spacing" textLength="271" x="318" y="194.3701">selecionarMusica(musica: String): void</text><ellipse cx="309" cy="207.3203" fill="#84BE84" rx="3" ry="3" style="stroke:#038048;stroke-width:1.0;"/><text fill="#000000" font-family="sans-serif" font-size="14" lengthAdjust="spacing" textLength="241" x="318" y="210.667">exibirPaginaWeb(url: String): void</text><ellipse cx="309" cy="223.6172" fill="#84BE84" rx="3" ry="3" style="stroke:#038048;stroke-width:1.0;"/><text fill="#000000" font-family="sans-serif" font-size="14" lengthAdjust="spacing" textLength="177" x="318" y="226.9639">adicionarNovaAba(): void</text><ellipse cx="309" cy="239.9141" fill="#84BE84" rx="3" ry="3" style="stroke:#038048;stroke-width:1.0;"/><text fill="#000000" font-family="sans-serif" font-size="14" lengthAdjust="spacing" textLength="157" x="318" y="243.2607">atualizarPagina(): void</text></g><!--class ReprodutorMusical--><g id="elem_ReprodutorMusical"><rect codeLine="17" fill="#F1F1F1" height="96.8906" id="ReprodutorMusical" rx="2.5" ry="2.5" style="stroke:#181818;stroke-width:0.5;" width="297" x="7" y="311"/><ellipse cx="84.25" cy="327" fill="#ADD1B2" rx="11" ry="11" style="stroke:#181818;stroke-width:1.0;"/><path d="M86.5938,322.6719 C85.6563,322.2344 85.0625,322.0938 84.1875,322.0938 C81.5625,322.0938 79.5625,324.1719 79.5625,326.8906 L79.5625,328.0156 C79.5625,330.5938 81.6719,332.4844 84.5625,332.4844 C85.7813,332.4844 86.9375,332.1875 87.6875,331.6406 C88.2656,331.2344 88.5938,330.7813 88.5938,330.3906 C88.5938,329.9375 88.2031,329.5469 87.7344,329.5469 C87.5156,329.5469 87.3125,329.625 87.125,329.8125 C86.6719,330.2969 86.6719,330.2969 86.4844,330.3906 C86.0625,330.6563 85.375,330.7813 84.6094,330.7813 C82.5625,330.7813 81.2656,329.6875 81.2656,327.9844 L81.2656,326.8906 C81.2656,325.1094 82.5156,323.7969 84.25,323.7969 C84.8281,323.7969 85.4375,323.9531 85.9063,324.2031 C86.3906,324.4844 86.5625,324.7031 86.6563,325.1094 C86.7188,325.5156 86.75,325.6406 86.8906,325.7656 C87.0313,325.9063 87.2656,326.0156 87.4844,326.0156 C87.75,326.0156 88.0156,325.875 88.1875,325.6563 C88.2969,325.5 88.3281,325.3125 88.3281,324.8906 L88.3281,323.4688 C88.3281,323.0313 88.3125,322.9063 88.2188,322.75 C88.0625,322.4844 87.7813,322.3438 87.4844,322.3438 C87.1875,322.3438 86.9844,322.4375 86.7656,322.75 L86.5938,322.6719 Z " fill="#000000"/><text fill="#000000" font-family="sans-serif" font-size="14" lengthAdjust="spacing" textLength="134" x="104.75" y="331.8467">ReprodutorMusical</text><line style="stroke:#181818;stroke-width:0.5;" x1="8" x2="303" y1="343" y2="343"/><line style="stroke:#181818;stroke-width:0.5;" x1="8" x2="303" y1="351" y2="351"/><ellipse cx="18" cy="364.6484" fill="#84BE84" rx="3" ry="3" style="stroke:#038048;stroke-width:1.0;"/><text fill="#000000" font-family="sans-serif" font-size="14" lengthAdjust="spacing" textLength="87" x="27" y="367.9951">tocar(): void</text><ellipse cx="18" cy="380.9453" fill="#84BE84" rx="3" ry="3" style="stroke:#038048;stroke-width:1.0;"/><text fill="#000000" font-family="sans-serif" font-size="14" lengthAdjust="spacing" textLength="96" x="27" y="384.292">pausar(): void</text><ellipse cx="18" cy="397.2422" fill="#84BE84" rx="3" ry="3" style="stroke:#038048;stroke-width:1.0;"/><text fill="#000000" font-family="sans-serif" font-size="14" lengthAdjust="spacing" textLength="271" x="27" y="400.5889">selecionarMusica(musica: String): void</text></g><!--class AparelhoTelefonico--><g id="elem_AparelhoTelefonico"><rect codeLine="23" fill="#F1F1F1" height="96.8906" id="AparelhoTelefonico" rx="2.5" ry="2.5" style="stroke:#181818;stroke-width:0.5;" width="214" x="339.5" y="311"/><ellipse cx="372.95" cy="327" fill="#ADD1B2" rx="11" ry="11" style="stroke:#181818;stroke-width:1.0;"/><path d="M375.2938,322.6719 C374.3563,322.2344 373.7625,322.0938 372.8875,322.0938 C370.2625,322.0938 368.2625,324.1719 368.2625,326.8906 L368.2625,328.0156 C368.2625,330.5938 370.3719,332.4844 373.2625,332.4844 C374.4813,332.4844 375.6375,332.1875 376.3875,331.6406 C376.9656,331.2344 377.2938,330.7813 377.2938,330.3906 C377.2938,329.9375 376.9031,329.5469 376.4344,329.5469 C376.2156,329.5469 376.0125,329.625 375.825,329.8125 C375.3719,330.2969 375.3719,330.2969 375.1844,330.3906 C374.7625,330.6563 374.075,330.7813 373.3094,330.7813 C371.2625,330.7813 369.9656,329.6875 369.9656,327.9844 L369.9656,326.8906 C369.9656,325.1094 371.2156,323.7969 372.95,323.7969 C373.5281,323.7969 374.1375,323.9531 374.6063,324.2031 C375.0906,324.4844 375.2625,324.7031 375.3563,325.1094 C375.4188,325.5156 375.45,325.6406 375.5906,325.7656 C375.7313,325.9063 375.9656,326.0156 376.1844,326.0156 C376.45,326.0156 376.7156,325.875 376.8875,325.6563 C376.9969,325.5 377.0281,325.3125 377.0281,324.8906 L377.0281,323.4688 C377.0281,323.0313 377.0125,322.9063 376.9188,322.75 C376.7625,322.4844 376.4813,322.3438 376.1844,322.3438 C375.8875,322.3438 375.6844,322.4375 375.4656,322.75 L375.2938,322.6719 Z " fill="#000000"/><text fill="#000000" font-family="sans-serif" font-size="14" lengthAdjust="spacing" textLength="141" x="391.05" y="331.8467">AparelhoTelefonico</text><line style="stroke:#181818;stroke-width:0.5;" x1="340.5" x2="552.5" y1="343" y2="343"/><line style="stroke:#181818;stroke-width:0.5;" x1="340.5" x2="552.5" y1="351" y2="351"/><ellipse cx="350.5" cy="364.6484" fill="#84BE84" rx="3" ry="3" style="stroke:#038048;stroke-width:1.0;"/><text fill="#000000" font-family="sans-serif" font-size="14" lengthAdjust="spacing" textLength="188" x="359.5" y="367.9951">ligar(numero: String): void</text><ellipse cx="350.5" cy="380.9453" fill="#84BE84" rx="3" ry="3" style="stroke:#038048;stroke-width:1.0;"/><text fill="#000000" font-family="sans-serif" font-size="14" lengthAdjust="spacing" textLength="106" x="359.5" y="384.292">atender(): void</text><ellipse cx="350.5" cy="397.2422" fill="#84BE84" rx="3" ry="3" style="stroke:#038048;stroke-width:1.0;"/><text fill="#000000" font-family="sans-serif" font-size="14" lengthAdjust="spacing" textLength="185" x="359.5" y="400.5889">iniciarGravacaoVoz(): void</text></g><!--class NavegadorInternet--><g id="elem_NavegadorInternet"><rect codeLine="29" fill="#F1F1F1" height="96.8906" id="NavegadorInternet" rx="2.5" ry="2.5" style="stroke:#181818;stroke-width:0.5;" width="234" x="588.5" y="311"/><ellipse cx="633.25" cy="327" fill="#ADD1B2" rx="11" ry="11" style="stroke:#181818;stroke-width:1.0;"/><path d="M635.5938,322.6719 C634.6563,322.2344 634.0625,322.0938 633.1875,322.0938 C630.5625,322.0938 628.5625,324.1719 628.5625,326.8906 L628.5625,328.0156 C628.5625,330.5938 630.6719,332.4844 633.5625,332.4844 C634.7813,332.4844 635.9375,332.1875 636.6875,331.6406 C637.2656,331.2344 637.5938,330.7813 637.5938,330.3906 C637.5938,329.9375 637.2031,329.5469 636.7344,329.5469 C636.5156,329.5469 636.3125,329.625 636.125,329.8125 C635.6719,330.2969 635.6719,330.2969 635.4844,330.3906 C635.0625,330.6563 634.375,330.7813 633.6094,330.7813 C631.5625,330.7813 630.2656,329.6875 630.2656,327.9844 L630.2656,326.8906 C630.2656,325.1094 631.5156,323.7969 633.25,323.7969 C633.8281,323.7969 634.4375,323.9531 634.9063,324.2031 C635.3906,324.4844 635.5625,324.7031 635.6563,325.1094 C635.7188,325.5156 635.75,325.6406 635.8906,325.7656 C636.0313,325.9063 636.2656,326.0156 636.4844,326.0156 C636.75,326.0156 637.0156,325.875 637.1875,325.6563 C637.2969,325.5 637.3281,325.3125 637.3281,324.8906 L637.3281,323.4688 C637.3281,323.0313 637.3125,322.9063 637.2188,322.75 C637.0625,322.4844 636.7813,322.3438 636.4844,322.3438 C636.1875,322.3438 635.9844,322.4375 635.7656,322.75 L635.5938,322.6719 Z " fill="#000000"/><text fill="#000000" font-family="sans-serif" font-size="14" lengthAdjust="spacing" textLength="136" x="653.75" y="331.8467">NavegadorInternet</text><line style="stroke:#181818;stroke-width:0.5;" x1="589.5" x2="821.5" y1="343" y2="343"/><line style="stroke:#181818;stroke-width:0.5;" x1="589.5" x2="821.5" y1="351" y2="351"/><ellipse cx="599.5" cy="364.6484" fill="#84BE84" rx="3" ry="3" style="stroke:#038048;stroke-width:1.0;"/><text fill="#000000" font-family="sans-serif" font-size="14" lengthAdjust="spacing" textLength="208" x="608.5" y="367.9951">exibirPagina(url: String): void</text><ellipse cx="599.5" cy="380.9453" fill="#84BE84" rx="3" ry="3" style="stroke:#038048;stroke-width:1.0;"/><text fill="#000000" font-family="sans-serif" font-size="14" lengthAdjust="spacing" textLength="177" x="608.5" y="384.292">adicionarNovaAba(): void</text><ellipse cx="599.5" cy="397.2422" fill="#84BE84" rx="3" ry="3" style="stroke:#038048;stroke-width:1.0;"/><text fill="#000000" font-family="sans-serif" font-size="14" lengthAdjust="spacing" textLength="157" x="608.5" y="400.5889">atualizarPagina(): void</text></g><!--link iPhone to ReprodutorMusical--><g id="link_iPhone_ReprodutorMusical"><path codeLine="35" d="M297.59,246.928 C268.784,269.547 254.3131,280.9095 230.3831,299.6998 " fill="none" id="iPhone-to-ReprodutorMusical" style="stroke:#181818;stroke-width:1.0;"/><polygon fill="none" points="216.226,310.8163,234.0886,304.4189,226.6776,294.9808,216.226,310.8163" style="stroke:#181818;stroke-width:1.0;"/></g><!--link iPhone to AparelhoTelefonico--><g id="link_iPhone_AparelhoTelefonico"><path codeLine="36" d="M446.5,251.275 C446.5,272.425 446.5,275.252 446.5,292.8434 " fill="none" id="iPhone-to-AparelhoTelefonico" style="stroke:#181818;stroke-width:1.0;"/><polygon fill="none" points="446.5,310.8434,452.5,292.8434,440.5,292.8434,446.5,310.8434" style="stroke:#181818;stroke-width:1.0;"/></g><!--link iPhone to NavegadorInternet--><g id="link_iPhone_NavegadorInternet"><path codeLine="37" d="M583.963,251.275 C607.935,272.425 618.0453,281.3435 637.9843,298.9349 " fill="none" id="iPhone-to-NavegadorInternet" style="stroke:#181818;stroke-width:1.0;"/><polygon fill="none" points="651.482,310.8434,641.9538,294.4357,634.0148,303.4341,651.482,310.8434" style="stroke:#181818;stroke-width:1.0;"/></g><!--SRC=[hPB1IiH038RlVOevLcHVO0_2ua44NPPLz9pEPDl0T5BIcIAjlhjrjbRB51JnD4E-a3_97ssXRHKTAdQeXaofItN4HjW4pt8VMj9WbSoHcB1hGD1M_8WMJ-n8i_BdBqQ-XmvBC2otpgCuzCfzHaOUKqxGeznH2HeuTw56uQrwy4AklDYgZid4DF3e3Cfr1JKOoByZ6dK9v4QW-oZonFq2UzOmzR-8Dn3QLT2E4sXYDyCwFcjTuGiL90SeoS4p5daGkzgyeNF1FNUmAvPou0DOwc4gCxEtBDFHajI5uMkmbP7-CimijkBeMSsE5idF1ltMcLamFP4XMUr_xtKwyitczIhTxeAcwrZWfFbt]--></g></svg>